<?xml version="1.0" encoding="UTF-8" standalone="no"?>
<!DOCTYPE svg PUBLIC "-//W3C//DTD SVG 1.1//EN" "http://www.w3.org/Graphics/SVG/1.1/DTD/svg11.dtd">
<svg width="100%" height="100%" viewBox="0 0 203 203" version="1.1" xmlns="http://www.w3.org/2000/svg" xmlns:xlink="http://www.w3.org/1999/xlink" xml:space="preserve" xmlns:serif="http://www.serif.com/" style="fill-rule:evenodd;clip-rule:evenodd;stroke-linejoin:round;stroke-miterlimit:2;">
    <g transform="matrix(1,0,0,1,-1573.269969,-5475.935833)">
        <g transform="matrix(8.333333,0,0,8.333333,0,0)">
            <g transform="matrix(1,0,0,1,209.3183,670.2417)">
                <path d="M0,0.666C0.057,0.478 0.043,0.234 0.03,0.038C-0.393,0.123 -0.711,0.129 -1.146,0.036C-1.154,0.191 -1.16,0.384 -1.146,0.55C-1.122,0.837 -0.857,0.978 -0.591,0.981C-0.366,0.984 -0.082,0.94 0,0.666M0.734,-2.065L0.715,-2.406C-0.068,-2.645 -0.772,-2.873 -1.331,-3.506L-1.624,-3.209C-1.743,-3.09 -1.845,-2.898 -1.845,-2.721L-1.846,-1.95C-1.847,-1.19 -1.218,-0.612 -0.48,-0.656C0.228,-0.698 0.775,-1.3 0.734,-2.065M-0.335,-3.643C0.128,-3.371 0.63,-3.201 1.162,-3.09C1.348,-3.051 1.492,-2.911 1.492,-2.712L1.492,-1.952C1.492,-1.401 1.288,-0.944 0.939,-0.522L1.886,-0.519L1.879,-3.38C1.876,-4.733 0.741,-5.778 -0.57,-5.77C-1.879,-5.762 -2.994,-4.715 -2.997,-3.368L-3.004,-0.521L-2.051,-0.521C-2.431,-0.965 -2.612,-1.436 -2.609,-2.002L-2.605,-2.713C-2.603,-3.149 -2.413,-3.506 -2.111,-3.801C-1.561,-4.338 -1.691,-4.629 -1.376,-4.664C-0.832,-4.725 -1.083,-4.082 -0.335,-3.643M3.827,1.995L3.827,6.935C3.727,7.099 3.564,7.234 3.394,7.204C3.185,7.166 3.061,7.015 3.061,6.798L3.065,2.281C3.066,1.86 2.793,1.491 2.4,1.375L0.736,0.886C0.538,1.462 0.033,1.744 -0.549,1.744C-1.128,1.744 -1.639,1.477 -1.848,0.88L-3.518,1.358C-3.914,1.472 -4.185,1.842 -4.188,2.251L-4.198,4.088C-4.2,4.322 -4.4,4.475 -4.61,4.458C-4.78,4.445 -4.958,4.291 -4.957,4.08L-4.949,2.241C-4.945,1.511 -4.463,0.852 -3.765,0.643L-2.494,0.262L-3.309,0.246C-3.562,0.241 -3.765,0.116 -3.765,-0.157L-3.76,-3.373C-3.758,-5.165 -2.267,-6.568 -0.526,-6.548C1.251,-6.528 2.654,-5.083 2.651,-3.283L2.646,-0.146C2.646,0.112 2.449,0.24 2.212,0.244L1.35,0.26L2.536,0.617C3.22,0.822 3.656,1.33 3.827,1.995" style="fill:white;fill-rule:nonzero;"/>
            </g>
            <g transform="matrix(1,0,0,1,201.6177,659.4763)">
                <path d="M0,5.072C0.012,4.889 0.01,4.701 0.006,4.524C-0.442,4.63 -0.808,4.646 -1.292,4.52L-1.289,5.084C-1.288,5.427 -0.964,5.58 -0.649,5.58C-0.339,5.58 -0.025,5.439 0,5.072M0.743,2.423L0.739,1.675C0.737,1.439 0.628,1.243 0.471,1.083L0.174,0.78C-0.407,1.46 -1.192,1.715 -2.012,1.965L-2.03,2.345C-2.07,3.162 -1.468,3.834 -0.671,3.849C0.105,3.864 0.748,3.248 0.743,2.423M0.23,-0.38C0.521,-0.337 0.427,-0.022 1.007,0.546C1.302,0.835 1.496,1.2 1.498,1.632L1.501,2.44C1.504,3.072 1.252,3.647 0.779,4.069L0.772,4.74L1.96,5.071L1.955,0.966C1.954,-0.477 0.767,-1.594 -0.627,-1.602C-2.024,-1.61 -3.236,-0.498 -3.238,0.939L-3.245,5.055L-2.061,4.739L-2.068,4.061C-2.529,3.654 -2.779,3.099 -2.783,2.489L-2.789,1.675C-2.79,1.481 -2.663,1.32 -2.476,1.28C-1.897,1.159 -1.347,0.977 -0.843,0.673C-0.08,0.213 -0.324,-0.462 0.23,-0.38M-0.269,-2.364C1.448,-2.113 2.721,-0.737 2.722,1.017L2.723,5.298C3.196,5.517 3.539,5.885 3.691,6.38C3.759,6.6 3.633,6.809 3.456,6.862C2.831,7.046 3.115,6.192 2.328,5.97L0.678,5.506C0.45,6.067 -0.063,6.34 -0.649,6.34C-1.236,6.34 -1.746,6.073 -1.97,5.499L-3.639,5.964C-4.098,6.092 -4.323,6.549 -4.302,7.001C-4.289,7.259 -4.484,7.436 -4.708,7.422C-4.923,7.41 -5.055,7.237 -5.064,7.008C-5.093,6.239 -4.693,5.589 -4.007,5.276L-3.999,0.926C-3.996,-0.804 -2.677,-2.108 -1.03,-2.364L-0.269,-2.364Z" style="fill:white;fill-rule:nonzero;"/>
            </g>
            <g transform="matrix(1,0,0,1,201.5607,671.8749)">
                <path d="M0,3.73C0.218,3.567 0.358,3.286 0.356,3.033L0.35,2.28C-0.28,2.616 -0.91,2.655 -1.568,2.291C-1.583,2.569 -1.602,2.846 -1.562,3.112C-1.512,3.446 -1.223,3.712 -0.988,3.806C-0.658,3.937 -0.279,3.939 0,3.73M-1.002,1.717C-0.306,1.996 0.515,1.348 0.916,0.83C1.199,0.464 1.259,0.055 1.249,-0.4C1.24,-0.881 1.262,-1.351 1.042,-1.793C0.144,-1.136 -0.922,-1.329 -1.869,-1.702C-2.063,-1.408 -2.243,-1.161 -2.476,-0.889C-2.491,-0.63 -2.493,-0.308 -2.485,-0.016C-2.465,0.751 -1.695,1.438 -1.002,1.717M0.726,-2.501C0.99,-2.702 1.334,-2.721 1.555,-2.437C1.675,-2.282 1.755,-2.091 1.864,-1.855C2.564,-2.597 2.709,-3.767 2.202,-4.685C1.569,-4.308 1.203,-4.418 0.53,-4.658C-0.407,-4.992 -1.42,-5.075 -2.373,-4.799C-3.098,-4.589 -3.559,-4.002 -3.604,-3.252C-3.642,-2.606 -3.371,-2.027 -2.88,-1.586C-2.682,-1.842 -2.526,-2.094 -2.386,-2.381C-2.301,-2.555 -2.09,-2.677 -1.892,-2.571C-1.036,-2.112 -0.1,-1.874 0.726,-2.501M1.017,3.618C0.745,4.223 0.255,4.606 -0.399,4.652C-1.171,4.705 -1.855,4.335 -2.197,3.61L-4.224,4.196C-4.764,4.352 -5.111,4.84 -5.108,5.403L-5.073,9.205C-5.071,9.424 -5.253,9.575 -5.421,9.585C-5.637,9.599 -5.831,9.446 -5.833,9.207L-5.865,5.355C-5.873,4.472 -5.269,3.709 -4.437,3.467L-2.342,2.858L-2.35,1.75C-2.818,1.309 -3.217,0.771 -3.234,0.121L-3.261,-0.904C-4.401,-1.814 -4.735,-3.399 -3.928,-4.592C-3.586,-5.098 -3.066,-5.411 -2.471,-5.564C-1.29,-5.869 -0.081,-5.723 1.048,-5.282C1.803,-4.988 1.884,-5.613 2.237,-5.631C2.366,-5.638 2.508,-5.559 2.596,-5.448C3.363,-4.484 3.462,-3.214 2.945,-2.091C2.733,-1.631 2.382,-1.284 2.012,-0.919C2.013,0.263 2.047,0.829 1.127,1.718L1.121,2.858L3.175,3.45C4.034,3.698 4.639,4.444 4.648,5.358L4.686,9.208C4.688,9.428 4.502,9.576 4.33,9.586C4.122,9.598 3.928,9.445 3.926,9.208L3.887,5.358C3.881,4.799 3.514,4.348 2.995,4.193L1.017,3.618Z" style="fill:white;fill-rule:nonzero;"/>
            </g>
            <g transform="matrix(1,0,0,1,193.9224,670.1648)">
                <path d="M0,0.298L-0.019,-0.081C-0.527,0.151 -0.975,0.135 -1.454,-0.075C-1.509,0.382 -1.445,0.811 -1.018,0.991C-0.772,1.094 -0.508,1.085 -0.298,0.954C-0.08,0.819 0.013,0.566 0,0.298M-2.137,-1.828C-1.947,-1.269 -1.367,-0.71 -0.752,-0.698C-0.116,-0.685 0.45,-1.274 0.67,-1.803C0.767,-2.039 0.768,-3.15 0.609,-3.431C-0.188,-2.954 -0.905,-3.099 -1.735,-3.382C-1.849,-3.175 -2.054,-2.996 -2.145,-2.785C-2.248,-2.548 -2.239,-2.132 -2.137,-1.828M0.373,-4.199C0.628,-4.384 0.972,-4.351 1.13,-4.086L1.345,-3.723C1.82,-4.327 1.911,-5.154 1.564,-5.814C1.187,-5.593 0.799,-5.612 0.414,-5.759C-0.394,-6.069 -1.246,-6.193 -2.092,-5.968C-2.407,-5.884 -2.717,-5.712 -2.888,-5.435C-3.281,-4.797 -3.149,-4.007 -2.589,-3.486C-2.307,-3.756 -2.22,-4.525 -1.688,-4.226C-1.263,-3.988 -0.791,-3.847 -0.293,-3.894C-0.059,-3.916 0.167,-4.05 0.373,-4.199M0.633,0.985C0.405,1.492 -0.035,1.786 -0.575,1.819C-1.218,1.858 -1.771,1.546 -2.075,0.97L-3.673,1.429C-4.092,1.55 -4.363,1.915 -4.364,2.359L-4.37,6.874C-4.371,7.101 -4.54,7.249 -4.728,7.259C-4.932,7.27 -5.131,7.117 -5.13,6.874L-5.11,2.177C-5.106,1.467 -4.525,0.885 -3.896,0.704L-2.223,0.22L-2.224,-0.603C-2.609,-0.986 -2.932,-1.453 -2.948,-2.015L-2.969,-2.793C-3.573,-3.304 -3.924,-4.015 -3.87,-4.791C-3.807,-5.707 -3.245,-6.42 -2.358,-6.68C-1.36,-6.972 -0.308,-6.856 0.662,-6.475C1.294,-6.227 1.298,-6.809 1.683,-6.76C1.802,-6.745 1.928,-6.65 2.012,-6.537C2.884,-5.364 2.639,-3.725 1.501,-2.81L1.479,-2.015C1.463,-1.466 1.161,-1.003 0.766,-0.625L0.758,0.226L2.419,0.714C3.149,0.929 3.655,1.587 3.652,2.356L3.646,4.184C3.645,4.399 3.434,4.539 3.265,4.537C3.073,4.534 2.889,4.389 2.889,4.167L2.89,2.361C2.891,1.929 2.614,1.564 2.202,1.444L0.633,0.985Z" style="fill:white;fill-rule:nonzero;"/>
            </g>
        </g>
    </g>
</svg>
