<?xml version="1.0" encoding="UTF-8"?>
<svg id="Capa_2" data-name="Capa 2" xmlns="http://www.w3.org/2000/svg" viewBox="0 0 36.62 23.49">
  <defs>
    <style>
      .cls-1 {
        fill: #f2a118;
      }
    </style>
  </defs>
  <g id="Capa_1-2" data-name="Capa 1">
    <g>
      <path class="cls-1" d="M15.52,3.93c6.06,2.57,12.03,5.33,17.9,8.28v-3.69c-5.91,3.65-11.83,7.29-17.74,10.94-2.34,1.44-.19,5.14,2.16,3.69,5.91-3.65,11.83-7.29,17.74-10.94,1.29-.8,1.48-2.94,0-3.69C29.7,5.57,23.73,2.81,17.67.24c-1.06-.45-2.29-.32-2.92.77-.52.9-.3,2.47.77,2.92h0Z"/>
      <path class="cls-1" d="M1.04,3.93c6.06,2.57,12.03,5.33,17.9,8.28v-3.69c-5.91,3.65-11.83,7.29-17.74,10.94-2.34,1.44-.19,5.14,2.16,3.69,5.91-3.65,11.83-7.29,17.74-10.94,1.29-.8,1.48-2.94,0-3.69C15.22,5.57,9.25,2.81,3.2.24,2.13-.21.91-.08.27,1.01-.25,1.91-.03,3.48,1.04,3.93h0Z"/>
    </g>
  </g>
</svg>